<svg width="112" height="112" viewBox="0 0 112 112" fill="none" xmlns="http://www.w3.org/2000/svg">
<g clip-path="url(#clip0_303_163)">
<g clip-path="url(#clip1_303_163)">
<path d="M0 55.9996C0 25.0718 25.0718 0 55.9997 0C86.9276 0 111.999 25.0718 112 55.9996C112 86.9274 86.9284 111.999 55.9997 112C25.0718 112 0 86.9282 0 55.9996ZM55.9997 107.733C84.5715 107.733 107.734 84.5714 107.734 55.9996C107.734 27.4278 84.5715 4.26588 55.9997 4.2667C27.4279 4.2667 4.26588 27.4287 4.26671 55.9996C4.26671 84.5714 27.4287 107.733 55.9997 107.733Z" fill="#1C4B82"/>
<g clip-path="url(#clip2_303_163)">
<g clip-path="url(#clip3_303_163)">
<path d="M77.9631 50.7137C74.3643 48.6361 70.1708 48.084 66.1569 49.1597C62.2885 50.1962 59.036 52.6275 56.9448 56.0233C61.3447 64.1694 58.4834 74.4235 50.4154 79.0817C47.715 80.6404 44.7609 81.3815 41.8462 81.3815C41.5505 81.3815 41.2548 81.3684 40.96 81.3525C45.3646 83.971 50.5052 85.4792 56.0001 85.4792C70.8867 85.4792 83.1885 74.4427 85.1884 60.1068C84.1477 56.2815 81.6598 52.8484 77.9631 50.7137Z" fill="#1C4B82"/>
<path d="M56.0001 26.5205C52.098 26.5205 48.3771 27.2856 44.9687 28.6622C42.1719 31.4763 40.441 35.3512 40.441 39.6225C40.441 48.0498 47.1773 54.9288 55.5481 55.1698C57.8587 51.4142 61.4552 48.7246 65.733 47.5781C70.1699 46.3896 74.8042 46.9993 78.782 49.2959C81.7524 51.0113 84.0139 53.4871 85.4711 56.3349C85.4715 56.2226 85.4795 56.1122 85.4795 55.9999C85.4795 39.7189 72.2816 26.5205 56.0001 26.5205Z" fill="#1C4B82"/>
<path d="M49.596 77.6635C56.8947 73.4494 59.4833 64.1755 55.5068 56.8062C46.2522 56.5437 38.8032 48.9389 38.8032 39.6225C38.8032 36.1893 39.8187 32.9896 41.5598 30.3023C32.5854 35.3559 26.5206 44.9667 26.5206 55.9999C26.5206 65.4366 30.9594 73.8303 37.8576 79.2259C41.688 80.2352 45.9017 79.7958 49.596 77.6635Z" fill="#1C4B82"/>
</g>
</g>
</g>
</g>
<defs>
<clipPath id="clip0_303_163">
<rect width="112" height="112" fill="white"/>
</clipPath>
<clipPath id="clip1_303_163">
<rect width="112" height="112" fill="white"/>
</clipPath>
<clipPath id="clip2_303_163">
<rect width="58.9588" height="58.9587" fill="white" transform="translate(26.5206 26.5205)"/>
</clipPath>
<clipPath id="clip3_303_163">
<rect width="58.9588" height="58.9587" fill="white" transform="translate(26.5206 26.5205)"/>
</clipPath>
</defs>
</svg>
