<svg width="497" height="170" viewBox="0 0 497 170" fill="none" xmlns="http://www.w3.org/2000/svg">
<g clip-path="url(#clip0_302_100)">
<g clip-path="url(#clip1_302_100)">
<g clip-path="url(#clip2_302_100)">
<g clip-path="url(#clip3_302_100)">
<g clip-path="url(#clip4_302_100)">
<g clip-path="url(#clip5_302_100)">
<g clip-path="url(#clip6_302_100)">
<path d="M191.026 98.2305V42.6462H197.184L217.845 77.5687C218.602 78.9191 219.736 81.404 221.249 85.0231L221.492 84.9421C221.33 81.1609 221.249 78.7031 221.249 77.5687V42.6462H227.65V98.2305H221.735L200.911 62.8218C200.047 61.3093 198.858 58.8245 197.346 55.3674L197.103 55.4484C197.319 58.9056 197.427 61.3634 197.427 62.8218V98.2305H191.026ZM247.258 99.2028C244.341 99.2028 241.748 98.3385 239.48 96.61C237.211 94.8814 236.076 91.7484 236.076 87.2109C236.076 81.7551 237.924 78.0116 241.619 75.9806C245.324 73.9603 250.661 72.9502 257.63 72.9502V67.4404C257.63 65.2256 257.143 63.5241 256.171 62.3357C255.199 61.1473 253.443 60.5531 250.904 60.5531C248.582 60.5531 246.907 61.2013 245.881 62.4977C244.854 63.7942 244.341 65.3877 244.341 67.2783V68.2506H237.778C237.724 67.9265 237.697 67.3323 237.697 66.468C237.697 62.6868 238.939 59.7698 241.424 57.7172C243.909 55.6645 247.231 54.6381 251.391 54.6381C255.658 54.6381 258.872 55.6645 261.033 57.7172C263.193 59.7698 264.274 62.7138 264.274 66.5491V90.4519C264.274 91.3702 264.49 92.0725 264.922 92.5586C265.354 93.0448 265.894 93.2879 266.543 93.2879H269.135V97.9064C267.947 98.5546 266.489 98.8787 264.76 98.8787C263.031 98.8787 261.584 98.4034 260.417 97.4526C259.261 96.5127 258.467 95.2325 258.035 93.612H257.63C256.549 95.3946 255.102 96.772 253.287 97.7443C251.482 98.7167 249.473 99.2028 247.258 99.2028ZM248.798 93.2879C250.256 93.2879 251.661 92.8827 253.011 92.0725C254.362 91.2622 255.469 90.0576 256.333 88.4587C257.198 86.8706 257.63 84.9691 257.63 82.7544V78.8651C252.768 78.8651 249.122 79.4161 246.691 80.5181C244.26 81.6308 243.045 83.7267 243.045 86.8057C243.045 89.1285 243.515 90.7868 244.455 91.7808C245.405 92.7855 246.853 93.2879 248.798 93.2879ZM282.667 99.0408C279.966 99.0408 278.021 98.1063 276.833 96.2372C275.645 94.379 275.05 92.0455 275.05 89.2365V61.5254H271.404V55.6105H275.05L276.509 43.7806H281.695V55.6105H287.448V61.5254H281.695V89.3986C281.695 91.9914 282.964 93.2879 285.503 93.2879H287.448V97.9064C286.853 98.2305 286.108 98.5006 285.211 98.7167C284.325 98.9327 283.477 99.0408 282.667 99.0408ZM294.643 98.2305V55.6105H301.287V98.2305H294.643ZM294.481 47.3457V39.6482H301.368V47.3457H294.481ZM325.676 99.2028C320.652 99.2028 316.86 97.377 314.3 93.7254C311.729 90.0846 310.443 84.483 310.443 76.9205C310.443 69.358 311.729 63.7509 314.3 60.0993C316.86 56.4585 320.652 54.6381 325.676 54.6381C330.7 54.6381 334.497 56.4585 337.068 60.0993C339.629 63.7509 340.909 69.358 340.909 76.9205C340.909 84.483 339.629 90.0846 337.068 93.7254C334.497 97.377 330.7 99.2028 325.676 99.2028ZM325.676 93.2879C331.186 93.2879 333.941 88.3452 333.941 78.46V75.381C333.941 65.4957 331.186 60.5531 325.676 60.5531C320.166 60.5531 317.411 65.4957 317.411 75.381V78.46C317.411 88.3452 320.166 93.2879 325.676 93.2879ZM349.012 98.2305V55.6105H354.035L354.927 60.5531H355.413C357.628 56.6098 361.058 54.6381 365.703 54.6381C369.106 54.6381 371.71 55.6483 373.514 57.6685C375.329 59.6996 376.237 62.9839 376.237 67.5214V98.2305H369.593V68.0075C369.593 65.2526 369.079 63.3188 368.053 62.206C367.027 61.1041 365.541 60.5531 363.597 60.5531C361.382 60.5531 359.502 61.6064 357.957 63.7131C356.423 65.8198 355.656 68.6558 355.656 72.2209V98.2305H349.012ZM387.013 98.2305V55.6105H393.658V98.2305H387.013ZM386.851 47.3457V39.6482H393.739V47.3457H386.851ZM404.418 98.2305V55.6105H409.442L410.333 60.5531H410.819C413.034 56.6098 416.464 54.6381 421.11 54.6381C424.513 54.6381 427.122 55.6483 428.937 57.6685C430.741 59.6996 431.643 62.9839 431.643 67.5214V98.2305H424.999V68.0075C424.999 65.2526 424.486 63.3188 423.459 62.206C422.433 61.1041 420.948 60.5531 419.003 60.5531C416.788 60.5531 414.914 61.6064 413.38 63.7131C411.835 65.8198 411.062 68.6558 411.062 72.2209V98.2305H404.418ZM440.961 98.2305V61.5254H437.234V55.6105H440.961V48.8042C440.961 45.9953 441.626 43.6563 442.954 41.7873C444.272 39.9291 446.417 39 449.388 39C451.279 39 453.142 39.3241 454.979 39.9723V44.5908H451.414C448.875 44.5908 447.605 45.8873 447.605 48.4801V55.6105H454.979V61.5254H447.605V98.2305H440.961ZM473.453 99.2028C468.429 99.2028 464.632 97.377 462.061 93.7254C459.5 90.0846 458.22 84.483 458.22 76.9205C458.22 69.358 459.5 63.7509 462.061 60.0993C464.632 56.4585 468.429 54.6381 473.453 54.6381C478.477 54.6381 482.269 56.4585 484.829 60.0993C487.4 63.7509 488.686 69.358 488.686 76.9205C488.686 84.483 487.4 90.0846 484.829 93.7254C482.269 97.377 478.477 99.2028 473.453 99.2028ZM473.453 93.2879C478.963 93.2879 481.718 88.3452 481.718 78.46V75.381C481.718 65.4957 478.963 60.5531 473.453 60.5531C467.943 60.5531 465.188 65.4957 465.188 75.381V78.46C465.188 88.3452 467.943 93.2879 473.453 93.2879Z" fill="#1C4B82"/>
</g>
</g>
<g clip-path="url(#clip7_302_100)">
<g clip-path="url(#clip8_302_100)">
<path d="M206.017 122.353C207.515 120.855 208.353 118.509 208.531 115.316L209.122 104.317H211.783L211.192 115.434C211.054 118.036 210.596 120.106 209.82 121.643C209.039 123.181 207.752 124.502 205.958 125.605C204.381 124.482 203.287 123.096 202.676 121.448C202.065 119.804 201.592 117.573 201.257 114.754H201.139C200.981 117.691 200.602 119.879 200.003 121.318C199.4 122.757 198.211 124.186 196.437 125.605C194.644 124.502 193.358 123.181 192.582 121.643C191.801 120.106 191.342 118.036 191.204 115.434L190.612 104.317H193.274L193.865 115.316C194.042 118.509 194.88 120.855 196.378 122.353C197.344 121.525 198.064 120.287 198.537 118.639C199.01 116.995 199.453 114.389 199.867 110.822H202.528C203.08 113.897 203.583 116.282 204.036 117.977C204.49 119.672 204.84 120.746 205.089 121.2C205.333 121.653 205.643 122.038 206.017 122.353ZM215.183 104.317H217.785V110.822H220.298C222.487 110.822 224.054 111.147 225 111.797C225.847 112.369 226.384 113.053 226.608 113.849C226.837 114.65 226.951 115.7 226.951 117.001V125.014H224.349V117.031C224.349 116.676 224.339 116.374 224.32 116.126C224.3 115.882 224.231 115.566 224.113 115.18C223.994 114.797 223.827 114.482 223.61 114.234C223.393 113.989 223.078 113.772 222.664 113.583C222.25 113.398 221.747 113.305 221.156 113.305H217.785V125.014H215.183V104.317ZM237.448 110.526C240.799 110.664 242.474 112.054 242.474 114.695C242.474 117.987 240.316 119.633 235.999 119.633H234.787V117.356H236.206C237.527 117.356 238.443 117.153 238.956 116.747C239.468 116.345 239.725 115.671 239.725 114.725C239.725 114.113 239.498 113.654 239.044 113.347C238.591 113.043 238.01 112.891 237.3 112.891C235.9 112.891 234.801 113.384 234 114.37C233.204 115.355 232.806 116.538 232.806 117.918C232.806 119.376 233.233 120.559 234.089 121.466C234.948 122.373 236.068 122.826 237.448 122.826C238.69 122.826 239.705 122.521 240.493 121.909L242.267 123.654C240.907 124.758 239.301 125.31 237.448 125.31C235.201 125.31 233.407 124.649 232.066 123.329C230.726 122.008 230.056 120.303 230.056 118.213C230.056 115.888 230.716 114.005 232.037 112.566C233.358 111.127 235.161 110.447 237.448 110.526ZM247.584 125.014H244.982V116.942C244.982 114.675 245.405 113.108 246.253 112.241C246.667 111.807 247.17 111.482 247.761 111.265C248.352 111.048 248.871 110.92 249.316 110.881C249.758 110.841 250.363 110.822 251.132 110.822H253.734V113.305H250.6C250.205 113.305 249.9 113.315 249.683 113.335C249.466 113.355 249.21 113.424 248.914 113.542C248.619 113.66 248.362 113.847 248.145 114.104C247.771 114.577 247.584 115.523 247.584 116.942V125.014ZM262.604 110.526C265.955 110.664 267.631 112.054 267.631 114.695C267.631 117.987 265.472 119.633 261.155 119.633H259.943V117.356H261.362C262.683 117.356 263.6 117.153 264.112 116.747C264.625 116.345 264.881 115.671 264.881 114.725C264.881 114.113 264.654 113.654 264.201 113.347C263.747 113.043 263.166 112.891 262.456 112.891C261.057 112.891 259.959 113.384 259.162 114.37C258.362 115.355 257.962 116.538 257.962 117.918C257.962 119.376 258.392 120.559 259.251 121.466C260.107 122.373 261.224 122.826 262.604 122.826C263.846 122.826 264.861 122.521 265.65 121.909L267.424 123.654C266.064 124.758 264.457 125.31 262.604 125.31C260.357 125.31 258.563 124.649 257.223 123.329C255.882 122.008 255.212 120.303 255.212 118.213C255.212 115.888 255.872 114.005 257.193 112.566C258.514 111.127 260.318 110.447 262.604 110.526ZM281.321 110.822V125.014H278.719V113.305H276.294L277.477 110.822H281.321ZM278.6 107.865C278.344 107.53 278.216 107.165 278.216 106.771C278.216 106.377 278.344 106.016 278.6 105.689C278.857 105.365 279.251 105.204 279.783 105.204C280.315 105.204 280.709 105.365 280.966 105.689C281.222 106.016 281.35 106.377 281.35 106.771C281.35 107.165 281.222 107.524 280.966 107.847C280.709 108.174 280.315 108.338 279.783 108.338C279.251 108.338 278.857 108.18 278.6 107.865ZM285.425 125.014V110.822H290.54C292.728 110.822 294.295 111.147 295.241 111.797C296.089 112.369 296.627 113.053 296.855 113.849C297.08 114.65 297.193 115.7 297.193 117.001V125.014H294.591V117.031C294.591 116.676 294.581 116.374 294.561 116.126C294.541 115.882 294.472 115.566 294.354 115.18C294.236 114.797 294.068 114.482 293.851 114.234C293.635 113.989 293.319 113.772 292.905 113.583C292.491 113.398 291.989 113.305 291.397 113.305H288.026V125.014H285.425ZM308.783 113.305H306.152L311.444 108.013V110.822H315.436V113.305H311.444V119.396C311.444 120.086 311.557 120.658 311.781 121.111C312.01 121.564 312.341 121.884 312.775 122.069C313.208 122.258 313.616 122.383 313.999 122.442C314.385 122.501 314.864 122.53 315.436 122.53V125.014C313.169 125.014 311.493 124.58 310.409 123.713C309.325 122.846 308.783 121.407 308.783 119.396V113.305ZM318.245 104.317H320.847V110.822H323.36C325.548 110.822 327.115 111.147 328.061 111.797C328.909 112.369 329.445 113.053 329.67 113.849C329.898 114.65 330.013 115.7 330.013 117.001V125.014H327.411V117.031C327.411 116.676 327.401 116.374 327.381 116.126C327.362 115.882 327.293 115.566 327.174 115.18C327.056 114.797 326.888 114.482 326.672 114.234C326.455 113.989 326.139 113.772 325.725 113.583C325.311 113.398 324.809 113.305 324.217 113.305H320.847V125.014H318.245V104.317ZM340.503 110.526C343.854 110.664 345.53 112.054 345.53 114.695C345.53 117.987 343.371 119.633 339.055 119.633H337.842V117.356H339.262C340.582 117.356 341.499 117.153 342.011 116.747C342.524 116.345 342.78 115.671 342.78 114.725C342.78 114.113 342.553 113.654 342.1 113.347C341.647 113.043 341.065 112.891 340.356 112.891C338.956 112.891 337.858 113.384 337.062 114.37C336.261 115.355 335.861 116.538 335.861 117.918C335.861 119.376 336.291 120.559 337.15 121.466C338.006 122.373 339.124 122.826 340.503 122.826C341.745 122.826 342.76 122.521 343.549 121.909L345.323 123.654C343.963 124.758 342.356 125.31 340.503 125.31C338.256 125.31 336.462 124.649 335.122 123.329C333.782 122.008 333.111 120.303 333.111 118.213C333.111 115.888 333.772 114.005 335.093 112.566C336.413 111.127 338.217 110.447 340.503 110.526ZM367.824 125.31C366.365 124.186 365.39 123.053 364.897 121.909C364.404 120.766 364.039 119.081 363.803 116.853H363.507C363.271 119.081 362.906 120.766 362.413 121.909C361.92 123.053 360.945 124.186 359.486 125.31C358.126 124.64 357.046 123.427 356.245 121.673C355.449 119.919 354.982 117.75 354.844 115.168L354.637 110.822H357.268L357.505 115.05C357.682 118.282 358.323 120.628 359.427 122.087C359.722 121.752 359.998 121.377 360.255 120.963C360.511 120.549 360.728 120.09 360.905 119.585C361.083 119.085 361.234 118.641 361.361 118.255C361.491 117.872 361.609 117.38 361.715 116.777C361.826 116.177 361.901 115.74 361.94 115.464C361.979 115.188 362.033 114.744 362.1 114.133C362.171 113.522 362.216 113.177 362.236 113.098H365.074C365.094 113.177 365.137 113.522 365.204 114.133C365.275 114.744 365.33 115.188 365.37 115.464C365.409 115.74 365.482 116.177 365.589 116.777C365.699 117.38 365.817 117.872 365.944 118.255C366.074 118.641 366.227 119.085 366.405 119.585C366.582 120.09 366.799 120.549 367.055 120.963C367.312 121.377 367.588 121.752 367.883 122.087C368.987 120.628 369.628 118.282 369.805 115.05L370.042 110.822H372.673L372.466 115.168C372.328 117.75 371.859 119.919 371.059 121.673C370.262 123.427 369.184 124.64 367.824 125.31ZM377.108 112.684C378.488 111.245 380.213 110.526 382.283 110.526C383.288 110.526 384.228 110.717 385.103 111.1C385.983 111.486 386.751 112.014 387.41 112.684C388.072 113.355 388.591 114.137 388.965 115.032C389.34 115.931 389.527 116.893 389.527 117.918C389.527 118.943 389.343 119.903 388.977 120.798C388.61 121.697 388.104 122.481 387.457 123.151C386.807 123.821 386.038 124.348 385.151 124.73C384.264 125.117 383.308 125.31 382.283 125.31C381.238 125.31 380.276 125.117 379.397 124.73C378.518 124.348 377.755 123.821 377.108 123.151C376.458 122.481 375.949 121.697 375.583 120.798C375.22 119.903 375.039 118.943 375.039 117.918C375.039 115.828 375.729 114.084 377.108 112.684ZM382.283 113.01C380.903 113.01 379.793 113.463 378.953 114.37C378.118 115.276 377.7 116.459 377.7 117.918C377.7 119.376 378.118 120.559 378.953 121.466C379.793 122.373 380.903 122.826 382.283 122.826C383.682 122.826 384.794 122.367 385.618 121.448C386.45 120.534 386.866 119.357 386.866 117.918C386.866 116.479 386.45 115.3 385.618 114.382C384.794 113.467 383.682 113.01 382.283 113.01ZM394.784 125.014H392.182V116.942C392.182 114.675 392.606 113.108 393.453 112.241C393.867 111.807 394.37 111.482 394.961 111.265C395.553 111.048 396.071 110.92 396.517 110.881C396.958 110.841 397.563 110.822 398.332 110.822H400.934V113.305H397.8C397.406 113.305 397.1 113.315 396.883 113.335C396.666 113.355 396.41 113.424 396.115 113.542C395.819 113.66 395.563 113.847 395.346 114.104C394.971 114.577 394.784 115.523 394.784 116.942V125.014ZM402.856 119.396V104.317H405.517V119.396C405.517 120.106 405.602 120.681 405.771 121.123C405.937 121.568 406.197 121.884 406.552 122.069C406.907 122.258 407.252 122.383 407.587 122.442C407.922 122.501 408.365 122.53 408.917 122.53V125.014C406.71 125.014 405.148 124.59 404.234 123.743C403.315 122.895 402.856 121.446 402.856 119.396ZM421.927 122.53V104.317H424.588V125.014H417.64C415.491 125.014 413.747 124.328 412.406 122.956C411.066 121.588 410.396 119.859 410.396 117.77C410.396 115.72 411.09 113.999 412.477 112.607C413.869 111.22 415.521 110.526 417.433 110.526C418.655 110.526 419.798 110.822 420.863 111.413V114.074C419.877 113.364 418.734 113.01 417.433 113.01C416.25 113.01 415.249 113.449 414.429 114.328C413.613 115.204 413.205 116.351 413.205 117.77C413.205 119.209 413.593 120.362 414.37 121.229C415.15 122.097 416.24 122.53 417.64 122.53H421.927Z" fill="#1C4B82"/>
</g>
</g>
</g>
</g>
<g clip-path="url(#clip9_302_100)">
<g clip-path="url(#clip10_302_100)">
<path d="M40.9999 85.4999C40.9999 48.2211 71.2205 18 108.5 18C145.779 18 176 48.2205 175.999 85.4999C175.999 122.779 145.779 153 108.5 152.999C71.2211 152.999 40.9999 122.779 40.9999 85.4999ZM108.5 148.68C143.394 148.68 171.68 120.393 171.68 85.4999C171.68 50.6062 143.393 22.3199 108.5 22.3193C73.6062 22.3193 45.3198 50.6062 45.3192 85.4999C45.3192 120.394 73.6062 148.68 108.5 148.68Z" fill="#1C4B82"/>
<g clip-path="url(#clip11_302_100)">
<g clip-path="url(#clip12_302_100)">
<path d="M136.829 78.6814C132.187 76.0016 126.778 75.2894 121.601 76.677C116.611 78.0139 112.416 81.15 109.718 85.53C115.394 96.0374 111.703 109.264 101.296 115.272C97.8132 117.283 94.0029 118.239 90.2434 118.239C89.8619 118.239 89.4805 118.222 89.1002 118.201C94.7815 121.579 101.412 123.524 108.5 123.524C127.702 123.524 143.569 109.289 146.149 90.7973C144.807 85.8632 141.597 81.4349 136.829 78.6814Z" fill="#1C4B82"/>
<path d="M108.5 47.4756C103.467 47.4756 98.6672 48.4624 94.2709 50.2381C90.6634 53.8679 88.4308 58.866 88.4308 64.3752C88.4308 75.2453 97.1197 84.1183 107.917 84.4291C110.897 79.5849 115.536 76.1157 121.054 74.637C126.777 73.1039 132.755 73.8903 137.886 76.8526C141.717 79.0653 144.634 82.2587 146.514 85.932C146.514 85.7871 146.524 85.6447 146.524 85.4998C146.524 64.4996 129.501 47.4756 108.5 47.4756Z" fill="#1C4B82"/>
<path d="M100.24 113.443C109.654 108.007 112.993 96.0453 107.864 86.5398C95.9265 86.2012 86.3184 76.3922 86.3184 64.3753C86.3184 59.947 87.6281 55.8198 89.874 52.3536C78.2983 58.872 70.4755 71.2685 70.4755 85.4999C70.4755 97.6719 76.2009 108.499 85.0986 115.458C90.0394 116.76 95.4745 116.193 100.24 113.443Z" fill="#1C4B82"/>
</g>
</g>
</g>
</g>
</g>
</g>
</g>
<defs>
<clipPath id="clip0_302_100">
<rect width="497" height="169.228" fill="white"/>
</clipPath>
<clipPath id="clip1_302_100">
<rect width="497" height="169.228" fill="white" transform="translate(-0.30127 0.22728)"/>
</clipPath>
<clipPath id="clip2_302_100">
<rect width="495.802" height="169.683" fill="white" transform="translate(0.297729)"/>
</clipPath>
<clipPath id="clip3_302_100">
<rect width="297.694" height="90.3159" fill="white" transform="translate(191 39)"/>
</clipPath>
<clipPath id="clip4_302_100">
<rect width="297.694" height="90.3159" fill="white" transform="translate(191 39)"/>
</clipPath>
<clipPath id="clip5_302_100">
<rect width="297.694" height="60.2028" fill="white" transform="translate(191 39)"/>
</clipPath>
<clipPath id="clip6_302_100">
<rect width="297.694" height="60.2028" fill="white" transform="translate(191 39)"/>
</clipPath>
<clipPath id="clip7_302_100">
<rect width="234" height="21.2887" fill="white" transform="translate(190.594 104.317)"/>
</clipPath>
<clipPath id="clip8_302_100">
<rect width="234" height="21.2887" fill="white" transform="translate(190.594 104.317)"/>
</clipPath>
<clipPath id="clip9_302_100">
<rect width="135" height="135" fill="white" transform="translate(40.9999 18)"/>
</clipPath>
<clipPath id="clip10_302_100">
<rect width="135" height="135" fill="white" transform="translate(40.9999 18)"/>
</clipPath>
<clipPath id="clip11_302_100">
<rect width="76.0488" height="76.0486" fill="white" transform="translate(70.4755 47.4756)"/>
</clipPath>
<clipPath id="clip12_302_100">
<rect width="76.0488" height="76.0486" fill="white" transform="translate(70.4755 47.4756)"/>
</clipPath>
</defs>
</svg>
